<svg width="15" height="10" viewBox="0 0 15 10" fill="none" xmlns="http://www.w3.org/2000/svg">
<path d="M13.2393 0.849997L6.55931 7.53L2.67931 3.65C2.49195 3.46375 2.23849 3.3592 1.97431 3.3592C1.71012 3.3592 1.45667 3.46375 1.26931 3.65C1.08306 3.83736 0.978516 4.09081 0.978516 4.355C0.978516 4.61918 1.08306 4.87263 1.26931 5.06L5.85931 9.65C6.04667 9.83625 6.30012 9.94079 6.56431 9.94079C6.82849 9.94079 7.08195 9.83625 7.26931 9.65L14.6493 2.27C14.743 2.17703 14.8174 2.06643 14.8682 1.94457C14.919 1.82271 14.9451 1.69201 14.9451 1.56C14.9451 1.42799 14.919 1.29728 14.8682 1.17542C14.8174 1.05356 14.743 0.94296 14.6493 0.849997C14.4619 0.663746 14.2085 0.559204 13.9443 0.559204C13.6801 0.559204 13.4267 0.663746 13.2393 0.849997Z" fill="#FDFDFD"/>
</svg>
